<svg xmlns="http://www.w3.org/2000/svg" xmlns:xlink="http://www.w3.org/1999/xlink" width="250" zoomAndPan="magnify" viewBox="0 0 187.5 48.75" height="65" preserveAspectRatio="xMidYMid meet" version="1.0"><defs><g/><clipPath id="343105535d"><path d="M 5.09375 11 L 58.960938 11 L 58.960938 44.796875 L 5.09375 44.796875 Z M 5.09375 11 " clip-rule="nonzero"/></clipPath><clipPath id="4bcc63be42"><path d="M 25 2.902344 L 39 2.902344 L 39 24 L 25 24 Z M 25 2.902344 " clip-rule="nonzero"/></clipPath></defs><g clip-path="url(#343105535d)"><path fill="#2188d4" d="M 19.359375 44.769531 C 23.300781 44.769531 26.59375 42.972656 26.59375 39.585938 C 26.59375 37.683594 24.675781 36.527344 22.96875 36.527344 C 22.125 36.527344 21.371094 36.84375 20.839844 37.472656 C 20.839844 35.257812 22.652344 34.195312 24.570312 34.195312 C 26.382812 34.195312 28.296875 35.257812 28.617188 37.253906 C 28.933594 36.191406 29.039062 35.140625 29.039062 34.195312 C 29.039062 24.683594 14.5625 20.355469 14.5625 13.910156 C 14.5625 13.175781 14.773438 12.324219 15.300781 11.378906 C 11.042969 13.492188 9.125 17.296875 9.125 20.890625 C 9.125 23.949219 10.515625 26.914062 12.960938 28.605469 C 9.445312 27.871094 6.890625 26.175781 6.363281 23.960938 C 5.410156 26.28125 5.09375 28.394531 5.09375 30.296875 C 5.09375 40.332031 13.078125 44.769531 19.359375 44.769531 Z M 44.695312 44.769531 C 50.972656 44.769531 58.960938 40.332031 58.960938 30.296875 C 58.960938 28.394531 58.644531 26.28125 57.679688 23.960938 C 57.148438 26.175781 54.597656 27.871094 51.082031 28.605469 C 53.527344 26.914062 54.914062 23.960938 54.914062 20.890625 C 54.914062 17.296875 52.996094 13.492188 48.738281 11.378906 C 49.269531 12.324219 49.480469 13.175781 49.480469 13.910156 C 49.480469 20.355469 35.003906 24.683594 35.003906 34.195312 C 35.003906 35.140625 35.109375 36.203125 35.425781 37.253906 C 35.742188 35.246094 37.660156 34.195312 39.472656 34.195312 C 41.390625 34.195312 43.199219 35.257812 43.199219 37.472656 C 42.671875 36.84375 41.917969 36.527344 41.070312 36.527344 C 39.367188 36.527344 37.449219 37.695312 37.449219 39.585938 C 37.460938 42.972656 40.753906 44.769531 44.695312 44.769531 Z M 44.695312 44.769531 " fill-opacity="1" fill-rule="nonzero"/></g><g clip-path="url(#4bcc63be42)"><path fill="#ffcd2a" d="M 30.320312 23.109375 C 29.582031 21.625 29.039062 20.050781 29.039062 18.777344 C 29.039062 16.5625 30.53125 15.394531 32.015625 15.394531 C 33.496094 15.394531 34.992188 16.5625 34.992188 18.777344 C 34.992188 20.050781 34.460938 21.625 33.707031 23.109375 C 36.578125 22.375 38.496094 19.09375 38.496094 14.972656 C 38.496094 11.066406 36.683594 6.417969 32.003906 2.929688 C 27.320312 6.417969 25.511719 11.066406 25.511719 14.972656 C 25.535156 19.09375 27.453125 22.363281 30.320312 23.109375 Z M 30.320312 23.109375 " fill-opacity="1" fill-rule="nonzero"/></g><path fill="#0d8e45" d="M 37.988281 23.214844 C 43.316406 20.472656 45.65625 16.875 45.65625 13.808594 C 45.65625 10.960938 43.527344 8.519531 39.90625 7.679688 C 40.976562 8.953125 41.507812 10.855469 41.507812 12.964844 C 41.507812 16.769531 40.011719 20.996094 37.988281 23.214844 Z M 26.0625 23.214844 C 24.039062 20.996094 22.546875 16.769531 22.546875 12.964844 C 22.546875 10.855469 23.074219 8.953125 24.144531 7.679688 C 20.523438 8.519531 18.394531 10.960938 18.394531 13.808594 C 18.394531 16.875 20.746094 20.472656 26.0625 23.214844 Z M 26.0625 23.214844 " fill-opacity="1" fill-rule="nonzero"/><g fill="#000000" fill-opacity="1"><g transform="translate(63.760374, 18.698969)"><g><path d="M 6.246094 -12.386719 L 1.574219 -12.386719 L 1.574219 0 L 6.246094 0 C 14.316406 -0.0351562 14.316406 -12.351562 6.246094 -12.386719 Z M 4.742188 -9.503906 L 6.246094 -9.503906 C 10.191406 -9.503906 10.191406 -2.882812 6.246094 -2.882812 L 4.742188 -2.882812 Z M 4.742188 -9.503906 "/></g></g></g><g fill="#000000" fill-opacity="1"><g transform="translate(76.882365, 18.698969)"><g><path d="M 9.449219 0 L 12.546875 0 L 12.546875 -0.460938 L 6.953125 -12.546875 L 5.59375 -12.546875 L 0.0195312 -0.460938 L 0.0195312 0 L 3.113281 0 L 3.839844 -1.558594 L 8.722656 -1.558594 Z M 7.699219 -4.265625 L 4.867188 -4.265625 L 6.265625 -7.519531 Z M 7.699219 -4.265625 "/></g></g></g><g fill="#000000" fill-opacity="1"><g transform="translate(89.473814, 18.698969)"><g><path d="M 3.769531 -3.785156 C 2.691406 -3.785156 1.769531 -3.785156 0.707031 -3.785156 C 0.636719 1.664062 10.722656 1.574219 10.722656 -3.628906 C 10.722656 -6.722656 8.316406 -7.097656 5.855469 -7.363281 C 4.742188 -7.484375 3.824219 -7.679688 3.894531 -8.617188 C 4 -10.085938 7.324219 -10.226562 7.324219 -8.582031 C 8.40625 -8.582031 9.21875 -8.582031 10.335938 -8.582031 C 10.40625 -13.925781 0.777344 -13.925781 0.886719 -8.582031 C 0.921875 -5.894531 2.691406 -4.972656 5.378906 -4.777344 C 6.617188 -4.707031 7.644531 -4.511719 7.644531 -3.644531 C 7.644531 -2.195312 3.769531 -2.210938 3.769531 -3.785156 Z M 3.769531 -3.785156 "/></g></g></g><g fill="#000000" fill-opacity="1"><g transform="translate(100.933449, 18.698969)"><g><path d="M 11.890625 -12.386719 C 10.8125 -12.386719 9.734375 -12.386719 8.652344 -12.386719 L 8.652344 -7.890625 L 4.832031 -7.890625 L 4.832031 -12.386719 C 3.75 -12.386719 2.65625 -12.386719 1.59375 -12.386719 L 1.59375 0 C 2.65625 0 3.75 0 4.832031 0 L 4.832031 -4.972656 L 8.652344 -4.972656 L 8.652344 0 C 9.734375 0 10.8125 0 11.890625 0 Z M 11.890625 -12.386719 "/></g></g></g><g fill="#000000" fill-opacity="1"><g transform="translate(114.409119, 18.698969)"><g><path d="M 10.722656 -8.582031 C 10.722656 -10.722656 9.007812 -12.386719 6.867188 -12.386719 L 1.574219 -12.386719 L 1.574219 0 L 7.378906 0 C 9.910156 0 11.21875 -1.75 11.238281 -3.910156 C 11.238281 -5.007812 10.757812 -5.929688 9.75 -6.441406 C 10.351562 -6.9375 10.722656 -7.839844 10.722656 -8.582031 Z M 7.148438 -4.917969 C 8.421875 -4.917969 8.441406 -2.8125 7.167969 -2.8125 L 4.636719 -2.8125 L 4.636719 -4.917969 Z M 6.617188 -9.554688 C 7.890625 -9.554688 7.890625 -7.554688 6.636719 -7.554688 L 4.636719 -7.554688 L 4.636719 -9.554688 Z M 6.617188 -9.554688 "/></g></g></g><g fill="#000000" fill-opacity="1"><g transform="translate(126.54076, 18.698969)"><g><path d="M 13.519531 -6.175781 C 13.519531 -14.742188 0.8125 -14.742188 0.8125 -6.175781 C 0.8125 2.40625 13.519531 2.40625 13.519531 -6.175781 Z M 4.070312 -6.175781 C 4.070312 -10.636719 10.28125 -10.636719 10.28125 -6.175781 C 10.28125 -1.679688 4.070312 -1.679688 4.070312 -6.175781 Z M 4.070312 -6.175781 "/></g></g></g><g fill="#000000" fill-opacity="1"><g transform="translate(140.865299, 18.698969)"><g><path d="M 9.449219 0 L 12.546875 0 L 12.546875 -0.460938 L 6.953125 -12.546875 L 5.59375 -12.546875 L 0.0195312 -0.460938 L 0.0195312 0 L 3.113281 0 L 3.839844 -1.558594 L 8.722656 -1.558594 Z M 7.699219 -4.265625 L 4.867188 -4.265625 L 6.265625 -7.519531 Z M 7.699219 -4.265625 "/></g></g></g><g fill="#000000" fill-opacity="1"><g transform="translate(153.456748, 18.698969)"><g><path d="M 9.609375 -4.386719 C 12.742188 -6.511719 11.855469 -12.371094 6.988281 -12.386719 C 5.183594 -12.386719 3.34375 -12.386719 1.558594 -12.386719 C 1.558594 -8.246094 1.558594 -4.125 1.558594 0 C 2.582031 0 3.664062 0 4.726562 0 L 4.726562 -3.644531 L 6.371094 -3.644531 L 8.492188 0 L 12.03125 0 L 12.03125 -0.460938 Z M 6.988281 -6.457031 L 4.726562 -6.457031 C 4.726562 -7.449219 4.726562 -8.546875 4.726562 -9.554688 C 5.46875 -9.554688 6.246094 -9.574219 6.988281 -9.554688 C 8.792969 -9.539062 8.707031 -6.457031 6.988281 -6.457031 Z M 6.988281 -6.457031 "/></g></g></g><g fill="#000000" fill-opacity="1"><g transform="translate(165.818293, 18.698969)"><g><path d="M 6.246094 -12.386719 L 1.574219 -12.386719 L 1.574219 0 L 6.246094 0 C 14.316406 -0.0351562 14.316406 -12.351562 6.246094 -12.386719 Z M 4.742188 -9.503906 L 6.246094 -9.503906 C 10.191406 -9.503906 10.191406 -2.882812 6.246094 -2.882812 L 4.742188 -2.882812 Z M 4.742188 -9.503906 "/></g></g></g><g fill="#000000" fill-opacity="1"><g transform="translate(62.788485, 43.490968)"><g><path d="M 16.492188 -19.972656 L 8.359375 -19.972656 C 8.359375 -18.488281 8.359375 -17.003906 8.359375 -15.4375 L 11.269531 -15.4375 L 11.269531 -6.734375 C 11.269531 -5.136719 10.269531 -4.335938 8.789062 -4.335938 C 7.304688 -4.335938 6.132812 -5.164062 6.132812 -6.734375 L 6.132812 -9.246094 C 4.535156 -9.246094 2.882812 -9.246094 1.3125 -9.246094 L 1.3125 -6.648438 C 1.3125 -2.28125 4.679688 0.226562 8.789062 0.226562 C 12.894531 0.226562 16.492188 -2.28125 16.492188 -6.648438 Z M 16.492188 -19.972656 "/></g></g></g><g fill="#000000" fill-opacity="1"><g transform="translate(81.672783, 43.490968)"><g><path d="M 15.234375 0 L 20.230469 0 L 20.230469 -0.742188 L 11.214844 -20.230469 L 9.015625 -20.230469 L 0.0273438 -0.742188 L 0.0273438 0 L 5.023438 0 L 6.191406 -2.511719 L 14.066406 -2.511719 Z M 12.410156 -6.875 L 7.847656 -6.875 L 10.101562 -12.125 Z M 12.410156 -6.875 "/></g></g></g><g fill="#000000" fill-opacity="1"><g transform="translate(101.983392, 43.490968)"><g><path d="M 5.476562 -15.40625 L 5.476562 0 C 7.160156 0 8.84375 0 10.527344 0 L 10.527344 -15.40625 L 15.40625 -15.40625 C 15.40625 -16.949219 15.40625 -18.460938 15.40625 -19.972656 L 0.570312 -19.972656 C 0.570312 -18.460938 0.570312 -16.949219 0.570312 -15.40625 Z M 5.476562 -15.40625 "/></g></g></g><g fill="#000000" fill-opacity="1"><g transform="translate(118.015085, 43.490968)"><g><path d="M 15.007812 -19.972656 C 10.328125 -19.972656 7.160156 -19.972656 2.539062 -19.972656 C 2.539062 -13.351562 2.539062 -6.675781 2.539062 0 C 7.160156 0 10.585938 0 15.265625 0 C 15.265625 -1.511719 15.265625 -3.054688 15.265625 -4.535156 C 12.269531 -4.535156 10.558594 -4.535156 7.617188 -4.535156 C 7.617188 -5.734375 7.617188 -6.875 7.617188 -8.046875 L 14.410156 -8.046875 C 14.410156 -9.558594 14.410156 -11.070312 14.410156 -12.582031 L 7.617188 -12.582031 L 7.617188 -15.40625 C 10.558594 -15.40625 12.039062 -15.40625 15.007812 -15.40625 C 15.007812 -16.949219 15.007812 -18.488281 15.007812 -19.972656 Z M 15.007812 -19.972656 "/></g></g></g><g fill="#000000" fill-opacity="1"><g transform="translate(135.130762, 43.490968)"><g><path d="M 17.890625 0.0273438 L 19.714844 0.0273438 L 19.714844 -19.972656 C 17.976562 -19.972656 16.234375 -19.972656 14.492188 -19.972656 L 14.492188 -10.1875 L 4.394531 -20.058594 L 2.539062 -20.058594 L 2.539062 0 C 4.28125 0 6.046875 0 7.816406 0 L 7.816406 -9.816406 Z M 17.890625 0.0273438 "/></g></g></g><g fill="#000000" fill-opacity="1"><g transform="translate(157.381148, 43.490968)"><g><path d="M 1.3125 -9.984375 C 1.339844 -3.167969 6.476562 0.226562 11.554688 0.226562 C 15.234375 0.226562 19.03125 -1.371094 20.457031 -5.535156 C 21.140625 -7.476562 21.140625 -9.386719 21.027344 -11.382812 L 11.582031 -11.382812 L 11.582031 -6.960938 L 15.835938 -6.960938 C 14.921875 -5.050781 13.609375 -4.507812 11.554688 -4.507812 C 8.53125 -4.507812 6.589844 -6.675781 6.589844 -9.984375 C 6.589844 -13.039062 8.332031 -15.550781 11.554688 -15.550781 C 13.582031 -15.550781 14.894531 -14.863281 15.722656 -13.152344 L 20.742188 -13.152344 C 19.773438 -18.117188 15.578125 -20.199219 11.554688 -20.230469 C 6.476562 -20.230469 1.339844 -16.804688 1.3125 -9.984375 Z M 1.3125 -9.984375 "/></g></g></g></svg>