<svg xmlns="http://www.w3.org/2000/svg" xmlns:xlink="http://www.w3.org/1999/xlink" width="40" zoomAndPan="magnify" viewBox="0 0 30 30.000001" height="40" preserveAspectRatio="xMidYMid meet" version="1.0"><defs><clipPath id="530a14d1d2"><path d="M 0.484375 7 L 29.515625 7 L 29.515625 25.402344 L 0.484375 25.402344 Z M 0.484375 7 " clip-rule="nonzero"/></clipPath><clipPath id="fe8fc13928"><path d="M 11 2.902344 L 19 2.902344 L 19 14 L 11 14 Z M 11 2.902344 " clip-rule="nonzero"/></clipPath></defs><g clip-path="url(#530a14d1d2)"><path fill="#2188d4" d="M 8.171875 25.390625 C 10.296875 25.390625 12.070312 24.425781 12.070312 22.609375 C 12.070312 21.585938 11.039062 20.964844 10.117188 20.964844 C 9.664062 20.964844 9.257812 21.132812 8.972656 21.472656 C 8.972656 20.28125 9.949219 19.710938 10.980469 19.710938 C 11.957031 19.710938 12.992188 20.28125 13.160156 21.355469 C 13.332031 20.78125 13.390625 20.21875 13.390625 19.710938 C 13.390625 14.601562 5.585938 12.277344 5.585938 8.816406 C 5.585938 8.417969 5.699219 7.960938 5.984375 7.453125 C 3.691406 8.589844 2.65625 10.632812 2.65625 12.5625 C 2.65625 14.207031 3.40625 15.800781 4.722656 16.707031 C 2.828125 16.3125 1.453125 15.402344 1.167969 14.210938 C 0.65625 15.460938 0.484375 16.59375 0.484375 17.617188 C 0.484375 23.007812 4.789062 25.390625 8.171875 25.390625 Z M 21.828125 25.390625 C 25.210938 25.390625 29.515625 23.007812 29.515625 17.617188 C 29.515625 16.59375 29.34375 15.460938 28.824219 14.210938 C 28.539062 15.402344 27.164062 16.3125 25.269531 16.707031 C 26.585938 15.800781 27.335938 14.210938 27.335938 12.5625 C 27.335938 10.632812 26.300781 8.589844 24.007812 7.453125 C 24.292969 7.960938 24.40625 8.417969 24.40625 8.816406 C 24.40625 12.277344 16.605469 14.601562 16.605469 19.710938 C 16.605469 20.21875 16.660156 20.789062 16.832031 21.355469 C 17.003906 20.273438 18.035156 19.710938 19.011719 19.710938 C 20.046875 19.710938 21.023438 20.28125 21.023438 21.472656 C 20.738281 21.132812 20.332031 20.964844 19.875 20.964844 C 18.957031 20.964844 17.921875 21.59375 17.921875 22.609375 C 17.929688 24.425781 19.703125 25.390625 21.828125 25.390625 Z M 21.828125 25.390625 " fill-opacity="1" fill-rule="nonzero"/></g><g clip-path="url(#fe8fc13928)"><path fill="#ffcd2a" d="M 14.082031 13.753906 C 13.679688 12.957031 13.390625 12.113281 13.390625 11.429688 C 13.390625 10.238281 14.195312 9.609375 14.992188 9.609375 C 15.792969 9.609375 16.597656 10.238281 16.597656 11.429688 C 16.597656 12.113281 16.3125 12.957031 15.90625 13.753906 C 17.453125 13.359375 18.488281 11.597656 18.488281 9.386719 C 18.488281 7.285156 17.511719 4.789062 14.988281 2.914062 C 12.464844 4.789062 11.488281 7.285156 11.488281 9.386719 C 11.5 11.597656 12.535156 13.355469 14.082031 13.753906 Z M 14.082031 13.753906 " fill-opacity="1" fill-rule="nonzero"/></g><path fill="#0d8e45" d="M 18.214844 13.8125 C 21.085938 12.339844 22.347656 10.40625 22.347656 8.757812 C 22.347656 7.230469 21.199219 5.917969 19.246094 5.46875 C 19.824219 6.148438 20.109375 7.171875 20.109375 8.308594 C 20.109375 10.351562 19.304688 12.621094 18.214844 13.8125 Z M 11.785156 13.8125 C 10.695312 12.621094 9.890625 10.351562 9.890625 8.308594 C 9.890625 7.171875 10.175781 6.148438 10.753906 5.46875 C 8.800781 5.917969 7.652344 7.230469 7.652344 8.757812 C 7.652344 10.40625 8.921875 12.339844 11.785156 13.8125 Z M 11.785156 13.8125 " fill-opacity="1" fill-rule="nonzero"/></svg>